# xmcd CD database file
#
# Track frame offsets:
#	150
#	4913
#	25001
#	43706
#	62595
#	89563
#	116300
#	140313
#	162837
#	183226
#	203766
#
# Disc length: 2910 seconds
#
# Revision: 0
# Processed by: cddbd v1.5.2PL0 Copyright (c) Steve Scherf et al.
# Submitted via: CDex 1.70beta2
#
DISCID=860b5c0b
DTITLE=Michael Lehrmann - Three Words Later
DYEAR=2012
DGENRE=Blues
TTITLE0=Slow Ahead
TTITLE1=Spurious Interruption
TTITLE2=Keep It Under Your Hat
TTITLE3=A Job To Build A Dream On
TTITLE4=I Rest My Case
TTITLE5=Paradise Pear
TTITLE6=Three Words Later
TTITLE7=Blood Runs Cold
TTITLE8=Gimme Back My Hair
TTITLE9=Roasting In The Sun
TTITLE10=Jacob's Ladder
EXTD=YEAR: 2012
EXTT0=
EXTT1=
EXTT2=
EXTT3=
EXTT4=
EXTT5=
EXTT6=
EXTT7=
EXTT8=
EXTT9=
EXTT10=
PLAYORDER=
